<svg xmlns="http://www.w3.org/2000/svg" xml:space="preserve" width="2000" height="630" data-id="lg_4x4LI6cnClzGf2lt3N" data-version="1" viewBox="0 0 2000 630"><g data-padding="20"><g transform="translate(10 10)scale(.96825)"><rect width="100" height="100" x="48.803" y="-63.492" fill="#3d9970" rx="10" ry="10" transform="matrix(6.3 0 0 6.3 400 400)"/><rect width="588.108" height="593.25" x="328.405" y="-381.625" fill="none" rx="0" ry="0" transform="translate(381 382.85)"/><path fill="#fff" d="M810.729 404.85q0-17.85 9.45-29.14t19.17-11.29q9.71 0 15.22 6.83 5.51 6.82 5.51 16.27 0 19.43-14.17 30.98 5.77 22.57 23.89 33.34 18.11 10.76 40.16 10.76 32.55 0 51.71-22.05t19.16-49.35q0-27.83-21-47.78-15.75-14.17-40.42-30.45l-26.78-17.32q-28.87-18.38-44.1-38.06-15.22-19.69-15.22-48.83t22.05-49.35 52.24-20.21q30.18 0 50.66 13.65 20.47 13.65 20.47 33.07 0 9.45-5.51 14.97-5.51 5.51-16.01 5.51t-20.21-8.93q-9.72-8.92-9.72-16.27t1.58-12.08q-4.73-8.92-22.05-8.92-17.33 0-30.71 13.65-13.39 13.65-13.39 30.45 0 27.3 49.35 59.85l26.77 17.85q17.33 12.07 25.99 18.64 8.66 6.56 21.79 20.21 25.2 26.25 25.2 69.3t-29.93 69.3q-29.92 26.25-70.87 26.25t-70.61-24.94q-29.67-24.94-29.67-55.91" paint-order="stroke"/><path fill="#fff" d="M1201.869 403.27q1.57-5.25 6.82-9.18 5.25-3.94 10.77-3.94 5.51 0 9.97 4.99 4.46 4.98 4.46 10.76 0 25.72-32.55 52.5-32.55 26.77-75.6 26.77-59.85 0-99.48-44.36-39.64-44.36-39.64-126.79 0-82.42 40.16-128.36t94.24-45.94q28.35 0 49.61 11.55t21.26 34.65q0 8.4-4.98 14.7-4.99 6.3-16.02 6.3-11.02 0-20.73-9.45-9.72-9.45-9.72-19.95 0-2.1 2.63-8.92-8.4-3.68-24.15-3.68-40.43 0-70.88 41.48-30.45 41.47-30.45 102.9 0 35.17 12.08 68.77 12.07 33.6 37.01 57.23 24.94 23.62 54.34 23.62t51.45-16.01 29.4-39.64" paint-order="stroke"/></g><path fill="transparent" stroke="transparent" d="M685 0h630v630H685z"/></g></svg>